<?xml version="1.0" standalone="no"?>
<!DOCTYPE svg PUBLIC "-//W3C//DTD SVG 20010904//EN"
 "http://www.w3.org/TR/2001/REC-SVG-20010904/DTD/svg10.dtd">
<svg version="1.0" xmlns="http://www.w3.org/2000/svg"
 width="1024.000000pt" height="1024.000000pt" viewBox="0 0 1024.000000 1024.000000"
 preserveAspectRatio="xMidYMid meet">

<g transform="translate(0.000000,1024.000000) scale(0.100000,-0.100000)"
fill="#000000" stroke="none">
<path d="M5056 9558 c-11 -44 -6 -204 9 -263 26 -103 73 -183 155 -265 83 -83
164 -131 293 -175 77 -26 457 -108 465 -101 6 7 -47 132 -86 202 -45 80 -133
179 -219 244 -35 27 -151 91 -257 143 -170 84 -201 104 -268 166 -42 39 -78
71 -81 71 -2 0 -7 -10 -11 -22z"/>
<path d="M3975 9194 c-251 -36 -498 -133 -673 -264 -91 -67 -232 -212 -283
-290 -112 -169 -175 -355 -180 -529 l-2 -64 -75 -81 c-339 -369 -613 -887
-755 -1426 -48 -180 -78 -360 -93 -547 l-7 -93 159 6 c241 8 284 12 284 32 1
38 30 233 49 325 90 430 317 900 586 1212 l26 30 21 -30 c11 -16 62 -70 112
-120 103 -101 183 -152 374 -239 68 -30 153 -76 189 -102 276 -197 266 -599
-19 -784 -83 -54 -164 -73 -284 -68 -110 4 -174 27 -265 94 -63 46 -83 41 -74
-19 33 -213 279 -339 550 -282 144 31 280 114 371 229 178 223 214 512 95 761
-86 180 -189 274 -434 396 -182 91 -255 138 -328 211 -139 142 -208 311 -209
511 0 261 143 516 381 678 261 177 628 241 978 169 143 -29 361 -106 361 -127
0 -4 -23 -21 -51 -38 -106 -63 -154 -142 -171 -284 -27 -230 63 -440 241 -560
62 -42 174 -101 192 -101 9 0 10 34 6 128 -8 195 -49 298 -176 442 -82 94
-103 126 -104 165 -3 98 148 149 473 161 91 3 230 1 310 -4 79 -6 146 -9 148
-7 7 7 -53 32 -198 84 -80 29 -264 110 -410 181 -416 202 -554 240 -880 245
-113 2 -218 1 -235 -1z"/>
<path d="M6094 9063 c3 -10 12 -67 20 -126 24 -190 87 -279 250 -356 45 -21
92 -42 104 -46 23 -7 24 -6 17 52 -27 236 -132 389 -317 464 -83 34 -81 34
-74 12z"/>
<path d="M6656 8628 c2 -192 14 -245 72 -330 32 -46 109 -128 122 -128 12 0
35 178 34 265 0 100 -22 166 -78 243 -36 48 -123 122 -145 122 -3 0 -5 -78 -5
-172z"/>
<path d="M4365 8733 c-254 -22 -527 -104 -793 -237 -128 -65 -285 -166 -306
-198 -54 -83 -42 -411 18 -493 13 -18 17 -17 82 37 163 132 439 293 659 384
108 44 338 124 359 124 21 0 24 9 40 97 18 101 49 183 91 237 18 24 31 47 28
50 -6 6 -104 6 -178 -1z"/>
<path d="M5750 8564 c-101 -19 -175 -40 -276 -80 -145 -56 -224 -77 -280 -72
-50 4 -54 -5 -21 -48 91 -123 275 -193 477 -181 90 5 151 19 420 94 83 23 114
27 250 27 85 1 174 -3 198 -7 58 -12 54 3 -15 57 -82 65 -224 140 -333 177
-88 30 -106 33 -245 35 -82 1 -161 0 -175 -2z"/>
<path d="M7080 8454 c0 -23 -12 -82 -27 -130 -21 -69 -27 -111 -27 -184 -1
-87 2 -100 31 -160 17 -36 39 -74 48 -85 16 -19 17 -20 30 -1 26 34 66 170 72
241 9 114 -30 251 -92 321 l-34 39 -1 -41z"/>
<path d="M7406 8231 c-9 -79 -37 -179 -85 -298 -50 -128 -69 -215 -82 -376
-17 -232 -56 -335 -168 -446 -138 -138 -365 -188 -544 -121 -32 12 -61 20 -63
17 -8 -8 21 -59 48 -84 69 -65 215 -89 351 -59 91 21 230 87 313 150 172 129
318 343 370 541 29 108 27 342 -4 453 -25 93 -67 190 -105 246 l-24 37 -7 -60z"/>
<path d="M6400 8114 c-94 -11 -196 -41 -310 -91 -182 -79 -261 -103 -346 -105
l-73 -2 17 -29 c41 -69 176 -146 304 -173 150 -32 271 -11 513 92 109 46 192
55 261 29 77 -29 123 -113 104 -187 -16 -57 -62 -86 -193 -119 -194 -50 -311
-107 -450 -219 -211 -170 -327 -408 -327 -671 0 -178 47 -311 159 -452 91
-115 209 -192 348 -228 178 -45 369 -9 478 92 58 53 83 101 91 173 9 78 -6 80
-102 17 -103 -68 -161 -84 -283 -79 -86 3 -105 7 -174 41 -174 82 -277 247
-277 442 0 152 61 288 184 411 67 68 97 89 176 127 52 25 136 55 185 68 120
30 187 63 239 119 56 60 86 139 86 228 0 231 -149 431 -367 495 -55 17 -186
28 -243 21z"/>
<path d="M4915 7613 l-130 -4 -69 -182 c-38 -100 -116 -306 -173 -457 -58
-151 -122 -320 -143 -375 -61 -157 -385 -1002 -455 -1185 -35 -91 -128 -336
-208 -545 -79 -209 -147 -389 -151 -401 -6 -20 -3 -21 161 -27 93 -4 201 -12
242 -17 41 -5 76 -8 78 -6 3 2 74 187 158 411 84 224 155 408 157 410 2 2 275
5 607 6 l603 3 16 -29 c13 -26 106 -263 238 -607 25 -64 53 -137 64 -161 l19
-43 88 13 c48 7 159 15 246 19 138 6 158 9 154 23 -2 9 -159 405 -349 881
-190 476 -378 948 -418 1050 -215 549 -479 1212 -485 1218 -6 7 -110 9 -250 5z
m119 -920 c69 -161 406 -1023 406 -1039 0 -12 -76 -14 -455 -14 -250 0 -455 2
-455 5 0 13 339 902 433 1137 6 15 14 25 18 23 3 -3 27 -53 53 -112z"/>
<path d="M7600 7368 c-50 -96 -105 -173 -183 -255 -61 -64 -69 -77 -59 -93 6
-10 33 -62 61 -117 137 -273 226 -584 266 -935 l6 -56 167 -1 c92 -1 189 -4
216 -8 l49 -6 -7 104 c-24 376 -145 808 -326 1170 -50 100 -145 259 -155 259
-2 0 -18 -28 -35 -62z"/>
<path d="M2813 6853 c-105 -189 -213 -507 -257 -759 -22 -121 -21 -157 2 -150
9 3 68 8 130 12 70 4 115 11 117 18 1 6 14 72 28 146 32 165 82 322 146 455
l48 101 -52 57 c-29 32 -67 87 -84 122 -18 36 -34 65 -36 65 -2 0 -21 -30 -42
-67z"/>
<path d="M7210 6795 c-7 -9 -52 -41 -99 -72 -47 -31 -88 -58 -90 -60 -2 -1 13
-40 34 -85 67 -147 127 -344 155 -508 19 -118 7 -107 117 -114 54 -4 116 -9
137 -12 l39 -6 -7 63 c-24 212 -126 549 -227 752 -31 61 -39 66 -59 42z"/>
<path d="M2963 5773 c4 -38 7 -96 7 -129 l0 -61 88 -12 c128 -16 197 -14 293
10 46 12 90 24 96 28 18 10 -166 158 -245 199 -59 29 -73 32 -155 32 l-90 0 6
-67z"/>
<path d="M6847 5816 c-31 -13 -90 -49 -130 -81 -39 -31 -89 -69 -109 -83 -20
-15 -36 -31 -34 -37 1 -5 41 -20 87 -32 96 -25 194 -28 319 -10 l85 13 5 122
c4 96 2 123 -8 127 -38 14 -159 4 -215 -19z"/>
<path d="M2695 5809 c-44 -4 -100 -11 -124 -14 l-44 -7 5 -134 c2 -74 7 -137
11 -140 3 -3 67 5 142 17 l137 24 -6 29 c-3 16 -6 75 -6 132 0 93 -2 104 -17
103 -10 -1 -54 -5 -98 -10z"/>
<path d="M7230 5704 c0 -60 -3 -118 -6 -129 -5 -19 3 -22 103 -39 59 -9 122
-21 139 -26 31 -7 32 -7 38 29 3 20 6 84 6 142 l0 107 -31 6 c-16 3 -79 9
-140 12 l-109 7 0 -109z"/>
<path d="M2051 5773 l-144 -4 7 -147 c11 -246 35 -416 88 -634 17 -71 36 -128
42 -128 6 0 63 17 126 39 63 21 151 46 195 56 44 10 83 21 87 24 4 4 -2 40
-12 81 -46 175 -84 431 -94 630 l-4 85 -73 0 c-41 1 -139 -1 -218 -2z"/>
<path d="M7687 5614 c-7 -191 -31 -356 -90 -626 -1 -6 45 -23 103 -38 127 -35
179 -51 246 -78 l51 -21 16 59 c59 211 97 464 104 688 l6 172 -119 0 c-66 0
-162 3 -215 6 l-96 7 -6 -169z"/>
<path d="M3017 5433 c-20 -3 -27 -9 -23 -21 3 -9 12 -44 21 -77 9 -33 25 -88
36 -122 l20 -62 62 -6 c67 -7 136 5 202 34 41 19 135 96 135 111 0 5 -13 11
-30 15 -16 3 -57 25 -92 47 -110 72 -154 88 -233 86 -38 0 -83 -3 -98 -5z"/>
<path d="M6829 5421 c-26 -10 -73 -33 -105 -52 -32 -18 -83 -43 -113 -55 l-54
-22 47 -45 c89 -87 203 -121 320 -97 47 10 59 16 67 37 18 47 59 236 53 242
-3 3 -42 7 -87 9 -61 1 -94 -3 -128 -17z"/>
<path d="M2682 5375 c-56 -12 -105 -25 -108 -28 -15 -14 72 -311 89 -304 7 2
65 17 130 32 64 15 117 32 117 38 0 5 -14 53 -30 105 -17 52 -33 114 -37 138
-7 53 -9 53 -161 19z"/>
<path d="M7205 5388 c-2 -7 -9 -39 -15 -70 -6 -31 -22 -92 -35 -134 -13 -43
-23 -79 -22 -80 7 -5 258 -66 260 -63 7 8 56 186 68 242 7 31 9 60 6 64 -7 6
-219 52 -245 53 -7 0 -14 -6 -17 -12z"/>
<path d="M6360 5068 c0 -5 52 -136 116 -291 64 -155 121 -294 127 -309 10 -25
15 -27 101 -33 301 -22 595 -98 855 -221 63 -30 117 -54 122 -54 12 0 93 145
175 314 89 183 91 168 -35 209 -266 88 -543 73 -831 -45 -52 -22 -101 -40
-109 -41 -8 -1 -49 43 -92 98 l-77 100 64 94 c59 86 72 111 59 111 -3 0 -61
11 -128 25 -152 30 -347 55 -347 43z"/>
<path d="M3520 5063 c-19 -3 -100 -18 -180 -34 -79 -16 -148 -29 -152 -29 -19
0 -4 -33 52 -118 33 -49 60 -93 60 -97 0 -6 -112 -169 -129 -188 -4 -4 -41 8
-83 27 -210 98 -486 138 -693 101 -112 -20 -285 -75 -285 -91 0 -30 185 -393
233 -459 14 -19 18 -18 134 38 225 108 486 179 782 214 111 13 144 20 148 32
3 9 55 142 115 296 60 154 112 288 115 298 5 14 -1 17 -38 15 -24 0 -60 -3
-79 -5z"/>
<path d="M2975 4963 c-43 -9 -215 -66 -215 -72 0 -4 30 -12 68 -19 37 -7 113
-28 170 -47 57 -19 106 -35 108 -35 4 0 -94 161 -105 171 -3 3 -15 4 -26 2z"/>
<path d="M6972 4877 c-28 -46 -52 -85 -52 -88 0 -3 52 13 116 34 64 21 146 44
183 52 65 12 66 12 36 24 -45 19 -195 61 -214 61 -10 0 -37 -34 -69 -83z"/>
<path d="M6978 4188 c6 -6 18 -8 28 -6 14 3 12 5 -9 10 -19 3 -25 2 -19 -4z"/>
<path d="M2890 4140 c-148 -54 -182 -69 -175 -80 3 -5 -1 -7 -9 -4 -8 3 -60
-19 -116 -51 l-100 -56 22 -32 c68 -99 358 -402 398 -415 5 -2 49 28 97 66
123 96 220 165 345 243 59 36 104 70 100 74 -4 5 -2 5 4 2 6 -4 47 14 90 38
43 25 82 45 87 45 4 0 5 4 2 10 -3 5 0 7 8 4 8 -3 18 0 22 7 8 12 -29 10 -70
-6 -11 -4 -16 -3 -10 2 18 14 15 32 -6 43 -11 6 -118 21 -237 32 -119 11 -219
24 -222 28 -16 24 -160 32 -160 8 0 -5 -14 -1 -30 9 -27 16 -32 16 -41 3 -9
-13 -10 -13 -6 0 2 8 13 16 25 18 12 2 22 8 22 13 0 6 5 7 11 3 6 -3 14 -2 18
2 3 5 17 15 31 21 51 24 2 10 -100 -27z m-20 -29 c0 -9 -24 -21 -43 -21 -6 0
-2 7 9 15 22 17 34 19 34 6z"/>
<path d="M7040 4170 c0 -5 5 -12 11 -16 8 -5 6 -10 -5 -16 -41 -23 -96 -35
-266 -57 -185 -25 -285 -49 -302 -74 -8 -14 -58 -16 -82 -4 -12 6 -22 5 -30
-3 -8 -8 -6 -9 8 -4 13 5 17 4 12 -4 -5 -8 -1 -10 11 -5 10 3 15 2 10 -2 -4
-5 42 -34 102 -66 191 -100 395 -237 579 -387 l44 -36 135 140 c75 76 168 177
206 223 l71 83 -25 19 c-83 64 -479 237 -479 209z m-539 -179 c-11 -7 -9 -10
10 -14 21 -4 20 -4 -6 -6 l-30 -2 25 -14 c14 -8 21 -14 15 -14 -17 -1 -40 17
-40 31 -1 14 14 28 30 28 6 0 4 -4 -4 -9z m-41 -5 c0 -2 -9 -6 -20 -9 -11 -3
-18 -1 -14 4 5 9 34 13 34 5z"/>
<path d="M2935 4120 c3 -5 10 -10 16 -10 5 0 9 5 9 10 0 6 -7 10 -16 10 -8 0
-12 -4 -9 -10z"/>
<path d="M3767 4049 c7 -7 15 -10 18 -7 3 3 -2 9 -12 12 -14 6 -15 5 -6 -5z"/>
<path d="M3700 4021 c-14 -4 -20 -10 -15 -13 6 -3 21 0 35 8 27 14 20 16 -20
5z"/>
<path d="M5847 4019 c7 -7 15 -10 18 -7 3 3 -2 9 -12 12 -14 6 -15 5 -6 -5z"/>
<path d="M4025 3952 c-185 -98 -358 -207 -465 -291 -113 -89 -317 -277 -362
-333 l-29 -38 83 -54 c100 -65 338 -198 348 -194 4 2 42 55 85 118 117 174
213 288 399 475 93 94 169 174 168 178 -2 5 2 6 8 2 10 -6 80 44 123 87 19 19
12 24 -12 9 -9 -6 -22 -6 -34 1 -11 5 -17 6 -14 1 3 -5 2 -15 -3 -22 -6 -11
-15 -11 -40 -2 -18 6 -53 11 -76 11 -24 0 -44 4 -44 9 0 17 -32 21 -46 6 -10
-9 -34 -15 -65 -15 -31 0 -49 -4 -49 -12 0 -6 -3 -9 -6 -5 -12 11 8 49 22 43
8 -3 13 -2 9 3 -3 5 8 15 25 23 16 7 30 16 30 20 0 5 -1 8 -2 7 -2 0 -26 -13
-53 -27z m-55 -62 c0 -5 -5 -10 -11 -10 -5 0 -7 5 -4 10 3 6 8 10 11 10 2 0 4
-4 4 -10z m375 1 c3 -5 1 -12 -5 -16 -5 -3 -10 1 -10 9 0 18 6 21 15 7z m-427
-36 c-3 -3 -9 2 -12 12 -6 14 -5 15 5 6 7 -7 10 -15 7 -18z"/>
<path d="M4824 3960 c9 -14 19 -32 22 -40 23 -57 32 -71 37 -56 3 8 -1 20 -9
26 -8 7 -14 18 -14 24 -1 6 -12 25 -27 41 -18 21 -21 23 -9 5z"/>
<path d="M4757 3946 c-14 -13 -28 -22 -30 -20 -2 3 -10 -2 -17 -11 -9 -11 -10
-18 -1 -29 9 -10 7 -17 -6 -27 -11 -9 -14 -10 -9 -1 4 7 2 12 -6 12 -10 0 -10
2 1 9 8 5 9 11 3 15 -24 15 -328 -270 -447 -419 -90 -113 -219 -311 -285 -437
-57 -109 -60 -117 -42 -127 53 -29 444 -131 499 -131 17 0 22 11 32 60 17 83
92 308 141 421 85 194 217 412 313 515 28 31 28 33 12 58 -10 15 -22 23 -29
19 -22 -14 -36 -11 -36 8 0 13 -4 18 -11 13 -8 -5 -10 1 -7 20 3 14 1 27 -3
27 -13 2 -22 5 -42 14 -14 6 -15 10 -6 21 18 22 4 16 -24 -10z m28 -19 c17
-13 17 -14 -4 -20 -16 -4 -21 -2 -17 8 3 8 0 16 -7 19 -7 2 -7 5 -1 5 5 1 18
-5 29 -12z m31 -33 c-4 -9 -9 -15 -11 -12 -3 3 -3 13 1 22 4 9 9 15 11 12 3
-3 3 -13 -1 -22z m-76 4 c0 -4 -4 -8 -9 -8 -6 0 -12 4 -15 8 -3 5 1 9 9 9 8 0
15 -4 15 -9z m-69 -45 c13 -16 12 -17 -3 -4 -17 13 -22 21 -14 21 2 0 10 -8
17 -17z m229 -58 c0 -5 -5 -3 -10 5 -5 8 -10 20 -10 25 0 6 5 3 10 -5 5 -8 10
-19 10 -25z m-275 -23 c-3 -3 -11 0 -18 7 -9 10 -8 11 6 5 10 -3 15 -9 12 -12z"/>
<path d="M5955 3959 l-20 -8 20 -2 c11 -1 25 -3 32 -3 6 -1 15 -5 20 -10 5 -5
2 -6 -6 -1 -9 5 -12 4 -7 -3 4 -6 14 -8 23 -5 11 4 14 3 9 -5 -4 -7 -2 -12 6
-12 9 -1 8 -4 -3 -10 -10 -6 -30 -5 -52 1 -28 7 -42 6 -59 -4 -13 -8 -35 -17
-50 -21 -16 -4 -29 -13 -29 -21 -4 -40 -7 -44 -38 -50 -12 -2 -19 0 -16 6 4 5
11 6 17 3 7 -4 8 -2 4 4 -5 8 -1 10 11 5 14 -5 16 -3 6 7 -9 10 -15 10 -26 2
-8 -7 -17 -9 -21 -5 -7 7 -36 14 -36 8 0 -10 135 -113 142 -109 5 3 7 1 6 -4
-2 -5 57 -70 129 -143 148 -149 251 -275 350 -424 37 -55 70 -104 74 -109 14
-16 429 232 429 257 0 17 -215 224 -328 315 -131 106 -341 245 -359 238 -8 -3
-11 -2 -8 4 3 5 -8 16 -25 25 -16 8 -30 12 -30 8 0 -5 -4 -3 -8 3 -7 11 -73
48 -115 63 -12 5 -31 5 -42 0z"/>
<path d="M5320 3912 c0 -5 11 -19 24 -31 17 -16 25 -19 28 -10 3 9 6 8 11 -3
5 -14 -3 -16 -46 -16 -29 1 -60 -2 -70 -7 -9 -4 -28 -4 -41 -1 -29 7 -60 -22
-46 -44 5 -8 9 -22 9 -30 -1 -13 -1 -13 -6 0 -8 18 -29 40 -39 40 -5 0 -3 -5
4 -12 17 -17 15 -33 -3 -18 -29 24 -14 -7 31 -66 125 -161 238 -361 315 -558
39 -99 92 -271 105 -341 8 -43 8 -43 150 -10 158 36 404 110 404 122 0 18
-135 255 -198 348 -110 161 -171 235 -311 376 -144 144 -321 288 -321 261z"/>
<path d="M5030 3870 c-8 -5 -12 -12 -9 -15 4 -3 12 1 19 10 14 17 11 19 -10 5z"/>
<path d="M5300 3870 c0 -5 5 -10 11 -10 5 0 7 5 4 10 -3 6 -8 10 -11 10 -2 0
-4 -4 -4 -10z"/>
<path d="M5166 3854 c-4 -9 -4 -19 -1 -22 3 -3 5 0 5 7 0 7 4 9 10 6 6 -3 7 1
4 9 -8 20 -10 20 -18 0z"/>
<path d="M5707 3859 c7 -7 15 -10 18 -7 3 3 -2 9 -12 12 -14 6 -15 5 -6 -5z"/>
<path d="M4978 3542 c-111 -207 -264 -773 -217 -803 20 -13 427 -15 497 -2 39
6 40 21 16 158 -20 121 -37 187 -86 335 -39 121 -145 361 -165 373 -5 3 -25
-24 -45 -61z"/>
<path d="M4173 2355 c-231 -63 -380 -284 -344 -515 14 -95 49 -166 117 -239
116 -126 302 -178 482 -136 75 18 145 52 230 112 l62 44 0 165 c0 139 -2 164
-15 165 -8 0 -91 1 -185 1 -93 0 -183 -1 -200 -1 l-30 -1 0 -90 0 -90 80 0
c72 0 80 -2 80 -19 0 -24 -38 -49 -98 -62 -109 -26 -225 45 -257 156 -19 65
-14 113 18 169 32 56 84 94 147 107 70 15 122 1 185 -47 l46 -35 109 57 c91
48 107 60 100 74 -18 34 -130 129 -182 154 -95 46 -239 59 -345 31z"/>
<path d="M6656 2359 c-127 -30 -252 -132 -313 -257 -34 -68 -38 -84 -41 -172
-5 -119 17 -198 79 -281 233 -316 756 -239 872 128 25 77 29 124 17 198 -28
186 -172 343 -351 384 -54 13 -210 12 -263 0z m252 -266 c69 -42 107 -110 107
-188 0 -51 -5 -70 -30 -110 -59 -95 -189 -132 -295 -84 -58 26 -77 44 -106
101 -58 115 1 257 127 305 54 20 143 10 197 -24z"/>
<path d="M3039 2343 l-86 -4 -113 -242 c-62 -133 -144 -307 -182 -387 -38 -80
-78 -166 -89 -192 l-19 -48 140 0 139 0 42 90 42 90 166 0 166 0 39 -90 38
-90 139 0 c76 0 139 4 139 9 0 4 -23 57 -51 117 -28 60 -109 237 -180 394 -71
157 -136 301 -146 320 -20 39 -21 39 -184 33z m111 -480 c0 -2 -32 -3 -71 -3
-81 0 -80 -6 -27 110 l29 65 35 -84 c19 -47 34 -86 34 -88z"/>
<path d="M5293 2343 l-153 -4 0 -434 0 -435 135 0 135 0 0 95 0 96 67 -3 68
-3 65 -92 65 -93 154 0 c121 0 151 3 144 13 -81 104 -163 218 -163 226 0 5 20
21 45 36 28 16 59 47 81 80 113 170 29 422 -166 496 -56 21 -216 29 -477 22z
m398 -281 c23 -25 29 -42 29 -77 0 -87 -51 -114 -222 -115 l-88 0 0 116 0 116
126 -4 126 -3 29 -33z"/>
<path d="M2535 1121 c-82 -21 -127 -67 -129 -131 -2 -73 59 -120 174 -135 64
-8 90 -20 90 -40 0 -41 -122 -44 -190 -4 l-35 21 -27 -33 c-16 -18 -27 -38
-25 -44 1 -5 30 -23 62 -40 51 -26 71 -30 135 -29 114 0 180 41 196 121 15 77
-48 131 -179 154 -73 12 -95 31 -62 55 25 18 52 18 114 -2 l50 -17 31 33 c16
17 28 36 25 40 -3 4 -25 17 -49 29 -51 23 -136 34 -181 22z"/>
<path d="M7140 1115 c-122 -38 -148 -180 -42 -231 19 -9 65 -21 103 -26 37 -6
76 -17 86 -24 17 -13 17 -15 -7 -35 -21 -18 -34 -20 -76 -16 -28 3 -69 14 -91
26 l-40 20 -32 -33 c-30 -31 -31 -33 -13 -49 70 -63 216 -81 306 -38 38 19 52
33 67 66 37 84 -9 153 -118 175 -114 23 -134 30 -131 48 6 30 53 38 123 20
l64 -17 32 31 31 32 -22 18 c-28 23 -113 48 -159 47 -20 0 -56 -7 -81 -14z"/>
<path d="M3102 908 l3 -213 178 -3 177 -2 0 50 0 50 -120 0 -120 0 0 35 0 35
95 0 95 0 0 51 0 52 -79 -7 c-96 -8 -111 -3 -111 35 l0 29 120 0 120 0 0 50 0
50 -180 0 -180 0 2 -212z"/>
<path d="M3790 906 l0 -217 53 3 52 3 3 58 3 57 44 0 c43 0 46 -2 85 -60 l41
-60 64 0 c36 0 65 3 65 6 0 3 -20 35 -45 71 -25 35 -45 66 -45 70 0 3 11 14
25 25 81 63 69 178 -24 232 -29 17 -58 21 -178 24 l-143 5 0 -217z m258 98
c12 -8 22 -26 22 -39 0 -37 -35 -55 -107 -55 l-63 0 0 55 0 55 63 0 c40 0 70
-5 85 -16z"/>
<path d="M4483 1113 l-42 -4 18 -42 c10 -23 55 -117 99 -208 l80 -166 47 0 48
0 52 111 c149 313 145 304 121 308 -11 2 -40 2 -62 0 l-42 -4 -45 -101 c-25
-56 -51 -117 -59 -135 l-13 -34 -55 132 c-49 118 -72 154 -97 148 -4 -1 -27
-3 -50 -5z"/>
<path d="M5202 905 l3 -210 53 -3 52 -3 0 215 0 216 -55 -3 -55 -2 2 -210z"/>
<path d="M5724 1101 c-53 -24 -100 -82 -114 -142 -53 -219 211 -357 386 -201
29 27 34 36 23 43 -8 5 -28 18 -46 29 l-31 21 -38 -26 c-85 -58 -184 -16 -184
79 0 97 89 142 183 92 45 -24 48 -25 66 -8 10 9 26 22 37 28 17 10 17 13 4 28
-8 10 -37 31 -65 47 -41 24 -61 29 -115 29 -42 0 -80 -7 -106 -19z"/>
<path d="M6340 909 l0 -206 31 -7 c17 -3 98 -6 180 -6 l149 0 0 50 0 50 -120
0 -120 0 0 35 0 35 95 0 95 0 0 45 0 45 -95 0 -95 0 0 35 0 35 120 0 120 0 0
51 0 50 -180 -2 -180 -3 0 -207z"/>
</g>
</svg>
