<?xml version="1.0" standalone="no"?>
<!DOCTYPE svg PUBLIC "-//W3C//DTD SVG 20010904//EN"
 "http://www.w3.org/TR/2001/REC-SVG-20010904/DTD/svg10.dtd">
<svg version="1.0" xmlns="http://www.w3.org/2000/svg"
 width="724.000000pt" height="724.000000pt" viewBox="0 0 724.000000 724.000000"
 preserveAspectRatio="xMidYMid meet">

<g transform="translate(0.000000,724.000000) scale(0.100000,-0.100000)"
fill="#000000" stroke="none">
<path d="M3596 7078 c-11 -44 -6 -204 9 -263 26 -103 73 -183 155 -265 83 -83
164 -131 293 -175 77 -26 457 -108 465 -101 6 7 -47 132 -86 202 -45 80 -133
179 -219 244 -35 27 -151 91 -257 143 -170 84 -201 104 -268 166 -42 39 -78
71 -81 71 -2 0 -7 -10 -11 -22z"/>
<path d="M2515 6714 c-251 -36 -498 -133 -673 -264 -91 -67 -232 -212 -283
-290 -112 -169 -175 -355 -180 -529 l-2 -64 -75 -81 c-339 -369 -613 -887
-755 -1426 -48 -180 -78 -360 -93 -547 l-7 -93 159 6 c241 8 284 12 284 32 1
38 30 233 49 325 90 430 317 900 586 1212 l26 30 21 -30 c11 -16 62 -70 112
-120 103 -101 183 -152 374 -239 68 -30 153 -76 189 -102 276 -197 266 -599
-19 -784 -83 -54 -164 -73 -284 -68 -110 4 -174 27 -265 94 -63 46 -83 41 -74
-19 33 -213 279 -339 550 -282 144 31 280 114 371 229 178 223 214 512 95 761
-86 180 -189 274 -434 396 -182 91 -262 143 -331 214 -137 142 -205 310 -206
508 0 261 143 516 381 678 261 177 628 241 978 169 143 -29 361 -106 361 -127
0 -4 -23 -21 -51 -38 -107 -63 -154 -142 -170 -287 -26 -231 62 -437 240 -557
62 -42 174 -101 192 -101 9 0 10 34 6 128 -8 195 -49 298 -176 442 -82 94
-103 126 -104 165 -2 73 79 117 264 147 93 14 453 18 587 5 129 -12 109 1
-163 99 -55 19 -219 94 -365 164 -416 202 -554 240 -880 245 -113 2 -218 1
-235 -1z"/>
<path d="M4634 6583 c3 -10 12 -67 20 -126 24 -190 87 -279 250 -356 45 -21
92 -42 104 -46 23 -7 24 -6 17 52 -27 236 -132 389 -317 464 -83 34 -81 34
-74 12z"/>
<path d="M5196 6148 c2 -192 14 -245 72 -330 32 -46 109 -128 122 -128 12 0
35 178 34 265 0 100 -22 166 -78 243 -36 48 -123 122 -145 122 -3 0 -5 -78 -5
-172z"/>
<path d="M2905 6253 c-254 -22 -527 -104 -793 -237 -128 -65 -285 -166 -306
-198 -54 -83 -42 -411 18 -493 13 -18 17 -17 82 37 163 132 439 293 659 384
108 44 338 124 359 124 21 0 24 9 40 97 18 101 49 183 91 237 18 24 31 47 28
50 -6 6 -104 6 -178 -1z"/>
<path d="M4290 6084 c-101 -19 -175 -40 -276 -80 -145 -56 -224 -77 -280 -72
-50 4 -54 -5 -21 -48 91 -123 275 -193 477 -181 90 5 140 16 420 94 83 23 115
27 250 27 85 1 174 -3 198 -7 58 -12 54 3 -15 57 -82 65 -224 140 -333 177
-88 30 -106 33 -245 35 -82 1 -161 0 -175 -2z"/>
<path d="M5620 5974 c0 -23 -12 -82 -27 -130 -21 -69 -27 -111 -27 -184 -1
-87 2 -100 31 -160 17 -36 39 -74 48 -85 16 -19 17 -20 30 -1 26 34 66 170 72
241 9 114 -30 251 -92 321 l-34 39 -1 -41z"/>
<path d="M5946 5752 c-9 -80 -37 -180 -85 -299 -50 -127 -68 -208 -81 -373
-19 -236 -57 -338 -169 -449 -138 -138 -352 -186 -540 -122 -35 12 -65 20 -68
17 -7 -7 23 -59 49 -83 69 -65 215 -89 351 -59 91 21 230 87 313 150 172 129
318 343 370 541 26 97 26 342 1 435 -27 99 -64 191 -101 250 l-33 52 -7 -60z"/>
<path d="M4940 5634 c-94 -11 -196 -41 -310 -91 -182 -79 -261 -103 -346 -105
l-73 -2 17 -29 c41 -69 176 -146 304 -173 150 -32 271 -11 513 92 109 46 192
55 261 29 77 -29 123 -113 104 -187 -16 -57 -62 -86 -193 -119 -194 -50 -311
-107 -450 -219 -211 -170 -327 -408 -327 -671 0 -178 47 -311 159 -452 91
-115 209 -192 348 -228 178 -45 369 -9 478 92 58 53 83 101 91 173 9 78 -6 80
-102 17 -103 -68 -161 -84 -283 -79 -86 3 -105 7 -174 41 -174 82 -277 247
-277 442 0 152 61 288 184 411 67 68 97 89 176 127 52 25 136 55 185 68 120
30 187 63 239 119 56 60 86 139 86 228 0 231 -149 431 -367 495 -55 17 -186
28 -243 21z"/>
<path d="M3455 5132 l-130 -3 -69 -182 c-38 -100 -116 -306 -173 -457 -58
-151 -122 -320 -143 -375 -61 -157 -385 -1002 -455 -1185 -35 -91 -128 -336
-208 -545 -79 -209 -147 -389 -151 -401 -6 -20 -3 -21 161 -27 93 -4 201 -12
242 -17 41 -5 76 -8 78 -6 3 2 74 187 158 411 84 224 155 408 157 410 2 2 275
5 607 6 l603 3 16 -29 c13 -26 106 -263 238 -607 25 -64 53 -137 64 -161 l19
-43 88 13 c48 7 159 15 246 19 138 6 158 9 154 23 -2 9 -159 405 -349 881
-190 476 -378 948 -418 1050 -74 191 -135 344 -354 897 -139 349 -130 335
-211 331 -22 -1 -98 -4 -170 -6z m119 -919 c69 -161 406 -1023 406 -1039 0
-12 -76 -14 -455 -14 -250 0 -455 2 -455 5 0 13 339 902 433 1137 6 15 14 25
18 23 3 -3 27 -53 53 -112z"/>
<path d="M6140 4888 c-50 -96 -105 -173 -183 -255 -61 -64 -69 -77 -59 -93 6
-10 33 -62 61 -117 137 -273 226 -584 266 -935 l6 -56 167 -1 c92 -1 189 -4
216 -8 l49 -6 -7 104 c-24 373 -143 804 -322 1163 -46 93 -150 266 -159 266
-2 0 -18 -28 -35 -62z"/>
<path d="M1369 4397 c-122 -194 -263 -628 -286 -875 -6 -60 -5 -64 13 -59 10
3 70 9 132 13 70 4 115 11 117 18 1 6 14 72 28 146 32 165 82 322 146 455 l48
101 -52 57 c-29 32 -67 87 -84 122 -18 36 -33 65 -34 65 -1 0 -14 -19 -28 -43z"/>
<path d="M5750 4315 c-7 -9 -52 -41 -99 -72 -47 -31 -88 -58 -90 -60 -2 -1 13
-40 34 -85 68 -148 137 -380 160 -538 12 -81 6 -77 113 -84 53 -4 115 -9 136
-12 l39 -6 -7 63 c-24 212 -126 549 -227 752 -31 61 -39 66 -59 42z"/>
<path d="M1503 3293 c4 -38 7 -96 7 -129 l0 -61 88 -12 c128 -16 197 -14 293
10 46 12 90 24 96 28 18 10 -166 158 -245 199 -59 29 -73 32 -155 32 l-90 0 6
-67z"/>
<path d="M5387 3336 c-31 -13 -90 -49 -130 -81 -39 -31 -89 -69 -109 -83 -20
-15 -36 -31 -34 -37 1 -5 41 -20 87 -32 96 -25 194 -28 319 -10 l85 13 5 122
c4 96 2 123 -8 127 -38 14 -159 4 -215 -19z"/>
<path d="M1235 3329 c-44 -4 -100 -11 -124 -14 l-44 -7 5 -134 c2 -74 7 -137
11 -140 3 -3 67 5 142 17 l137 24 -6 29 c-3 16 -6 75 -6 132 0 93 -2 104 -17
103 -10 -1 -54 -5 -98 -10z"/>
<path d="M5770 3224 c0 -60 -3 -119 -6 -130 -5 -19 0 -22 48 -28 29 -4 92 -15
140 -25 l86 -17 6 36 c3 19 6 83 6 141 l0 107 -31 6 c-16 3 -79 9 -140 12
l-109 7 0 -109z"/>
<path d="M593 3293 l-143 -4 0 -57 c0 -93 19 -329 36 -442 15 -106 79 -398 89
-408 3 -3 63 13 133 36 70 23 161 49 202 59 41 9 78 19 82 22 4 4 -2 40 -12
81 -46 175 -84 431 -94 630 l-4 85 -73 0 c-41 1 -138 0 -216 -2z"/>
<path d="M6227 3134 c-7 -191 -31 -356 -90 -626 -1 -6 45 -23 103 -38 127 -35
179 -51 246 -78 l51 -21 16 59 c59 211 97 464 104 688 l6 172 -119 0 c-66 0
-162 3 -215 6 l-96 7 -6 -169z"/>
<path d="M1557 2953 c-20 -3 -27 -9 -23 -21 3 -9 12 -44 21 -77 9 -33 25 -88
36 -122 l20 -62 62 -6 c67 -7 136 5 202 34 41 19 135 96 135 111 0 5 -13 11
-30 15 -16 3 -57 25 -92 47 -110 72 -154 88 -233 86 -38 0 -83 -3 -98 -5z"/>
<path d="M5369 2941 c-26 -10 -73 -33 -105 -52 -32 -18 -83 -43 -113 -55 l-54
-22 47 -45 c89 -87 203 -121 320 -97 47 10 59 16 67 37 18 47 59 236 53 242
-3 3 -42 7 -87 9 -61 1 -94 -3 -128 -17z"/>
<path d="M1222 2895 c-56 -12 -105 -25 -108 -28 -15 -14 72 -311 89 -304 7 2
65 17 130 32 64 15 117 32 117 38 0 5 -14 53 -30 105 -17 52 -33 114 -37 138
-7 53 -9 53 -161 19z"/>
<path d="M5745 2908 c-2 -7 -11 -48 -20 -92 -9 -43 -25 -103 -36 -134 -10 -30
-18 -56 -17 -57 7 -6 259 -68 261 -64 7 8 56 186 68 242 7 31 9 60 6 64 -7 6
-219 52 -245 53 -7 0 -14 -6 -17 -12z"/>
<path d="M4904 2573 c6 -20 125 -312 218 -535 l33 -76 90 -7 c300 -22 595 -98
854 -221 63 -30 117 -54 122 -54 12 0 93 145 175 314 89 183 91 168 -35 209
-266 88 -543 73 -831 -45 -52 -22 -101 -40 -109 -41 -8 -1 -49 43 -92 98 l-77
100 64 94 c59 86 72 111 59 111 -3 0 -61 11 -128 25 -67 13 -173 31 -235 38
l-113 14 5 -24z"/>
<path d="M2015 2575 c-153 -24 -295 -58 -295 -70 0 -7 27 -53 60 -103 33 -49
60 -93 60 -97 0 -6 -112 -169 -129 -188 -4 -4 -41 8 -83 27 -210 98 -486 138
-693 101 -114 -20 -285 -75 -285 -92 0 -30 183 -389 233 -458 14 -19 18 -18
133 37 248 118 541 195 852 223 55 5 75 11 79 24 3 9 55 142 115 296 60 154
112 288 115 298 5 14 -1 17 -38 16 -24 -1 -80 -7 -124 -14z"/>
<path d="M1515 2483 c-11 -2 -64 -18 -117 -35 -94 -30 -123 -48 -75 -48 32 0
200 -46 268 -74 33 -13 59 -22 59 -20 0 5 -112 184 -114 183 0 -1 -10 -3 -21
-6z"/>
<path d="M5512 2397 c-28 -46 -52 -85 -52 -88 0 -3 52 13 116 34 64 21 146 44
183 52 65 12 66 12 36 24 -45 19 -195 61 -214 61 -10 0 -37 -34 -69 -83z"/>
<path d="M5518 1708 c6 -6 18 -8 28 -6 14 3 12 5 -9 10 -19 3 -25 2 -19 -4z"/>
<path d="M1575 1700 c-3 -6 1 -7 9 -4 18 7 21 14 7 14 -6 0 -13 -4 -16 -10z"/>
<path d="M1515 1690 c-16 -7 -17 -9 -3 -9 9 -1 20 4 23 9 7 11 7 11 -20 0z"/>
<path d="M5580 1689 c0 -5 6 -9 14 -9 8 0 18 -5 21 -10 4 -6 3 -10 -2 -9 -17
3 -73 -14 -73 -23 0 -5 -6 -8 -12 -7 -7 1 -20 -1 -28 -4 -8 -3 -37 -8 -65 -11
-27 -3 -79 -8 -115 -12 -36 -3 -78 -13 -93 -21 -16 -8 -35 -12 -44 -9 -8 3
-22 2 -31 -3 -9 -5 -33 -11 -52 -14 -54 -7 -64 -11 -77 -27 -7 -8 -13 -12 -13
-8 0 4 -12 3 -26 -2 -17 -7 -32 -6 -46 1 -15 8 -23 8 -32 -1 -8 -8 -6 -9 8 -4
13 5 17 4 12 -4 -5 -8 -1 -10 11 -5 10 3 15 2 10 -2 -4 -5 42 -34 103 -66 183
-97 383 -230 568 -379 l53 -43 133 135 c73 74 165 174 206 222 l74 88 -25 19
c-84 65 -479 237 -479 208z m-540 -179 c-10 -6 -6 -9 11 -13 21 -4 20 -4 -6
-6 l-30 -2 25 -14 c14 -8 21 -14 15 -14 -15 -1 -40 17 -41 29 -1 5 -2 12 -3
15 0 2 -12 0 -26 -5 -14 -5 -25 -7 -25 -4 0 7 36 19 66 21 18 1 22 -2 14 -7z"/>
<path d="M1390 1646 c-104 -38 -141 -56 -135 -66 3 -5 -1 -7 -9 -4 -8 3 -60
-19 -116 -51 l-100 -56 22 -32 c68 -99 358 -402 398 -415 5 -2 49 28 97 66
123 96 220 165 345 243 59 36 104 70 100 74 -4 5 -2 5 5 1 7 -4 29 4 50 17 22
14 68 39 103 57 36 18 59 35 51 38 -7 2 -17 -2 -22 -9 -7 -11 -9 -11 -9 -1 0
9 -5 10 -19 2 -26 -14 -38 -13 -23 2 14 14 16 32 3 23 -6 -3 -14 2 -19 11 -7
13 -23 17 -71 16 -33 0 -61 3 -61 7 0 4 -26 8 -57 9 -32 0 -58 1 -58 2 0 3
-39 8 -110 14 -38 4 -74 11 -80 15 -14 12 -104 29 -139 26 -17 -1 -31 -6 -33
-12 -5 -13 -43 -5 -43 9 0 6 -10 8 -21 5 -17 -5 -19 -3 -10 6 8 8 19 8 41 0
17 -6 30 -7 30 -2 0 5 -7 9 -15 9 -8 0 -15 5 -15 10 0 14 -6 13 -80 -14z m20
-15 c0 -12 -39 -25 -47 -17 -4 3 1 6 10 6 10 0 17 5 17 10 0 6 5 10 10 10 6 0
10 -4 10 -9z"/>
<path d="M2307 1569 c7 -7 15 -10 18 -7 3 3 -2 9 -12 12 -14 6 -15 5 -6 -5z"/>
<path d="M2251 1545 c-19 -6 -30 -14 -25 -18 5 -3 25 3 44 14 40 21 32 23 -19
4z"/>
<path d="M4387 1539 c7 -7 15 -10 18 -7 3 3 -2 9 -12 12 -14 6 -15 5 -6 -5z"/>
<path d="M2565 1472 c-185 -98 -358 -207 -465 -291 -113 -89 -317 -277 -362
-333 l-29 -38 83 -54 c100 -65 338 -198 348 -194 4 2 42 55 85 118 117 175
213 288 399 475 94 94 169 174 168 178 -1 5 2 6 8 2 10 -6 80 44 123 87 19 19
12 24 -12 9 -9 -6 -22 -6 -33 0 -10 5 -18 6 -17 2 4 -26 -2 -34 -23 -27 -13 4
-49 6 -80 5 -45 -2 -58 1 -58 12 0 22 -29 29 -46 12 -10 -9 -34 -15 -65 -15
-31 0 -49 -4 -49 -12 0 -6 -3 -9 -6 -5 -12 11 8 49 22 43 8 -3 13 -2 9 3 -3 5
8 15 25 23 16 7 30 16 30 20 0 5 -1 8 -2 7 -2 0 -26 -13 -53 -27z m-55 -62 c0
-5 -5 -10 -11 -10 -5 0 -7 5 -4 10 3 6 8 10 11 10 2 0 4 -4 4 -10z m375 1 c3
-5 1 -12 -5 -16 -5 -3 -10 1 -10 9 0 18 6 21 15 7z m-427 -36 c-3 -3 -9 2 -12
12 -6 14 -5 15 5 6 7 -7 10 -15 7 -18z"/>
<path d="M3359 1482 c5 -10 18 -25 27 -33 11 -9 9 -2 -6 19 -26 35 -36 42 -21
14z"/>
<path d="M3260 1443 c-153 -107 -358 -302 -475 -448 -90 -113 -219 -311 -285
-437 -70 -135 -76 -120 60 -163 98 -31 365 -95 397 -95 17 0 23 8 28 42 9 53
64 234 101 331 84 222 242 497 358 625 22 23 27 35 19 43 -15 15 -33 2 -27
-19 4 -14 3 -13 -7 2 -9 15 -9 20 5 28 9 5 14 14 11 19 -4 5 -12 6 -18 2 -27
-17 -45 -13 -40 8 3 11 2 19 -3 18 -21 -4 -24 2 -14 24 10 20 9 20 -9 -3 -15
-18 -21 -20 -21 -9 0 8 5 20 11 26 9 9 7 11 -9 6 -11 -2 -29 0 -39 7 -16 10
-15 10 7 6 14 -3 19 -3 12 0 -10 5 -10 9 -1 20 18 22 9 17 -61 -33z m44 -24
c-3 -5 -10 -7 -15 -4 -5 4 -9 3 -9 -2 0 -4 -13 -17 -28 -28 -16 -11 -22 -13
-15 -4 10 12 10 18 0 29 -9 11 -7 10 7 0 18 -14 19 -13 13 2 -4 12 -2 15 7 12
8 -3 17 0 21 5 3 6 11 9 16 5 5 -3 7 -10 3 -15z m-93 -46 c12 -16 12 -17 -2
-6 -9 7 -20 9 -24 5 -5 -4 -5 -1 -1 6 9 16 11 15 27 -5z m-46 -81 c-3 -3 -11
0 -18 7 -9 10 -8 11 6 5 10 -3 15 -9 12 -12z"/>
<path d="M4495 1479 l-20 -8 20 -2 c11 -1 25 -3 32 -3 6 -1 15 -5 20 -10 5 -5
2 -6 -6 -1 -9 5 -12 4 -7 -3 4 -6 13 -9 21 -5 10 3 15 -2 15 -17 0 -18 -5 -20
-27 -17 -49 8 -58 12 -70 27 -11 13 -12 11 -13 -10 0 -21 -5 -25 -33 -27 -33
-3 -61 -28 -53 -50 3 -7 0 -15 -6 -19 -6 -4 -9 -3 -5 2 3 5 -1 17 -8 27 -12
16 -13 16 -18 -4 -4 -14 -10 -18 -19 -13 -14 9 -38 14 -38 9 0 -10 135 -113
142 -109 5 3 7 1 6 -4 -2 -5 57 -70 129 -143 148 -149 251 -275 350 -424 37
-55 70 -104 74 -109 14 -16 429 232 429 257 0 17 -215 224 -328 315 -131 106
-341 245 -359 238 -8 -3 -11 -2 -8 4 3 5 -8 16 -25 25 -16 8 -30 12 -30 8 0
-5 -4 -3 -8 3 -7 11 -73 48 -115 63 -12 5 -31 5 -42 0z m-160 -139 c8 7 12 5
12 -4 0 -16 -23 -15 -37 2 -7 9 -7 9 2 2 7 -6 16 -6 23 0z"/>
<path d="M3619 1423 c-13 -16 -12 -17 4 -4 9 7 17 15 17 17 0 8 -8 3 -21 -13z"/>
<path d="M3860 1432 c0 -5 11 -19 24 -31 17 -16 25 -19 28 -10 3 9 7 7 11 -5
4 -10 3 -15 -3 -11 -6 3 -10 2 -10 -3 0 -6 -17 -6 -42 -1 -25 4 -44 4 -46 -2
-6 -16 -92 -11 -99 7 -5 13 -7 13 -14 2 -5 -7 -9 -17 -9 -23 0 -5 4 -4 9 4 5
8 11 9 15 3 3 -6 2 -13 -3 -17 -6 -3 -8 -12 -4 -20 3 -8 0 -15 -6 -15 -6 0
-11 5 -11 10 0 6 -5 10 -12 10 -9 0 -9 -3 0 -12 17 -17 15 -28 -5 -21 -20 8
-17 2 50 -86 121 -159 223 -342 298 -535 39 -99 92 -271 105 -341 8 -43 8 -43
150 -10 158 36 404 110 404 122 0 18 -135 255 -198 348 -110 161 -171 235
-311 376 -144 144 -321 288 -321 261z"/>
<path d="M3390 1424 c1 -16 28 -45 34 -36 3 5 -3 17 -14 27 -11 10 -20 14 -20
9z"/>
<path d="M3570 1390 c-8 -5 -12 -12 -9 -15 4 -3 12 1 19 10 14 17 11 19 -10 5z"/>
<path d="M3840 1390 c0 -5 5 -10 11 -10 5 0 7 5 4 10 -3 6 -8 10 -11 10 -2 0
-4 -4 -4 -10z"/>
<path d="M4247 1379 c7 -7 15 -10 18 -7 3 3 -2 9 -12 12 -14 6 -15 5 -6 -5z"/>
<path d="M3518 1062 c-111 -207 -264 -773 -217 -803 20 -13 427 -15 497 -2 39
6 40 21 16 158 -20 121 -37 187 -86 335 -39 121 -145 361 -165 373 -5 3 -25
-24 -45 -61z"/>
</g>
</svg>
